# xmcd
# 
# Track frame offsets:
#     150
#     19734
#     39221
#     60696
#     80438
#     103245
#     166229
#     209673
#     235168
#     264235
#     282377
#     288927
#     306671
# 
# Disc length: 4330
# 
# Revision: 0
# Processed by: cddbd v1.5.2PL0 Copyright (c) Steve Scherf et al.
# Submitted via: BonkEnc v1.0.8
# 
DISCID=b810e80d
DTITLE=Toy Caldwell - Can't You See
DYEAR=0
DGENRE=
TTITLE0=I Hear The South Calling Me
TTITLE1=Searchin' For A Rainbow
TTITLE2=Heard It In A Love Song
TTITLE3=Long Hard Ride
TTITLE4=Mexico
TTITLE5=24 Hours At A Time
TTITLE6=Milk Cow Blues
TTITLE7=Fly Eagle Fly
TTITLE8=Can't You See
TTITLE9=Night Life
TTITLE10=Ab's Song
TTITLE11=High Noon
TTITLE12=Trouble In Dixie
EXTD=
EXTT0=
EXTT1=
EXTT2=
EXTT3=
EXTT4=
EXTT5=
EXTT6=
EXTT7=
EXTT8=
EXTT9=
EXTT10=
EXTT11=
EXTT12=
PLAYORDER=
